<mxfile host="app.diagrams.net" modified="2023-03-23T09:40:57.889Z" agent="5.0 (Windows NT 10.0; Win64; x64) AppleWebKit/537.36 (KHTML, like Gecko) Chrome/111.0.0.0 Safari/537.36" etag="Q1RWzK_FY0lQVyUnWn-1" version="21.0.4" type="github">
  <diagram name="Page-1" id="Ghbkj6T9aEEwsPDaRv4Z">
    <mxGraphModel dx="1950" dy="613" grid="1" gridSize="10" guides="1" tooltips="1" connect="1" arrows="1" fold="1" page="1" pageScale="1" pageWidth="850" pageHeight="1100" math="0" shadow="0">
      <root>
        <mxCell id="0" />
        <mxCell id="1" parent="0" />
        <mxCell id="P-RUS2r6f-XINXYVBXNX-3" style="edgeStyle=orthogonalEdgeStyle;rounded=1;orthogonalLoop=1;jettySize=auto;html=1;strokeColor=#330066;entryX=0.5;entryY=0;entryDx=0;entryDy=0;shape=link;entryPerimeter=0;" edge="1" parent="1" source="P-RUS2r6f-XINXYVBXNX-2" target="P-RUS2r6f-XINXYVBXNX-4">
          <mxGeometry relative="1" as="geometry">
            <mxPoint x="518" y="360" as="targetPoint" />
          </mxGeometry>
        </mxCell>
        <mxCell id="P-RUS2r6f-XINXYVBXNX-2" value="" style="rounded=1;whiteSpace=wrap;html=1;strokeWidth=3;fillColor=#e1d5e7;strokeColor=#63058f;" vertex="1" parent="1">
          <mxGeometry x="290" y="120" width="175" height="50" as="geometry" />
        </mxCell>
        <mxCell id="P-RUS2r6f-XINXYVBXNX-7" value="" style="edgeStyle=orthogonalEdgeStyle;rounded=0;orthogonalLoop=1;jettySize=auto;html=1;shape=link;strokeColor=#330066;" edge="1" parent="1" source="P-RUS2r6f-XINXYVBXNX-4" target="P-RUS2r6f-XINXYVBXNX-6">
          <mxGeometry relative="1" as="geometry" />
        </mxCell>
        <mxCell id="P-RUS2r6f-XINXYVBXNX-9" value="" style="edgeStyle=orthogonalEdgeStyle;rounded=0;orthogonalLoop=1;jettySize=auto;html=1;strokeColor=#330066;shape=link;" edge="1" parent="1" source="P-RUS2r6f-XINXYVBXNX-4" target="P-RUS2r6f-XINXYVBXNX-8">
          <mxGeometry relative="1" as="geometry" />
        </mxCell>
        <mxCell id="P-RUS2r6f-XINXYVBXNX-4" value="" style="rounded=1;whiteSpace=wrap;html=1;strokeWidth=3;fillColor=#e1d5e7;strokeColor=#63058f;" vertex="1" parent="1">
          <mxGeometry x="290" y="400" width="175" height="60" as="geometry" />
        </mxCell>
        <mxCell id="P-RUS2r6f-XINXYVBXNX-11" value="" style="edgeStyle=orthogonalEdgeStyle;rounded=0;orthogonalLoop=1;jettySize=auto;html=1;shape=link;strokeColor=#330066;" edge="1" parent="1" source="P-RUS2r6f-XINXYVBXNX-6" target="P-RUS2r6f-XINXYVBXNX-10">
          <mxGeometry relative="1" as="geometry" />
        </mxCell>
        <mxCell id="P-RUS2r6f-XINXYVBXNX-6" value="" style="whiteSpace=wrap;html=1;fillColor=#e1d5e7;strokeColor=#63058f;rounded=1;strokeWidth=3;" vertex="1" parent="1">
          <mxGeometry x="-90" y="400" width="200" height="60" as="geometry" />
        </mxCell>
        <mxCell id="P-RUS2r6f-XINXYVBXNX-8" value="" style="whiteSpace=wrap;html=1;fillColor=#e1d5e7;strokeColor=#63058f;rounded=1;strokeWidth=3;" vertex="1" parent="1">
          <mxGeometry x="572.5" y="400" width="217.5" height="60" as="geometry" />
        </mxCell>
        <mxCell id="P-RUS2r6f-XINXYVBXNX-10" value="" style="whiteSpace=wrap;html=1;fillColor=#e1d5e7;strokeColor=#63058f;rounded=1;strokeWidth=3;" vertex="1" parent="1">
          <mxGeometry x="-310" y="620" width="220" height="60" as="geometry" />
        </mxCell>
      </root>
    </mxGraphModel>
  </diagram>
</mxfile>
